#!OML:ASF H:\Terrain\Patient Classification 1\Takeo\Monday\TakeoMonday.ASF
:FULLY-SPECIFIED
:DEGREES
350
root 8.67143 17.8484 1.10855 -1.11134 12.71 -4.38745
lowerback 11.0016 -1.50411 1.77933
upperback 2.33997 -1.9433 -3.80737
thorax -3.91492 -0.992136 -4.71528
lowerneck -10.7001 -7.02812 -6.5171
upperneck -7.19162 -8.54168 3.76017
head -0.0193272 -4.08954 1.98214
rclavicle 1.0138e-014 -3.18055e-014
rhumerus 46.5269 -6.04553 -30.7081
rradius 73.9475
rwrist -12.9237
rhand -36.5781 31.1011
rfingers 7.12502
rthumb -9.66761 1.34292
lclavicle 1.0138e-014 -3.18055e-014
lhumerus -39.1867 4.90518 81.5409
lradius 52.3615
lwrist 33.1203
lhand -30.1631 17.6827
lfingers 7.12502
lthumb -3.47493 47.6341
rfemur -8.68771 -1.73792 24.8397
rtibia 19.2358
rfoot -7.88205 -12.4824
rtoes -1.15101
lfemur 2.53237 0.429955 -14.6934
ltibia 18.8303
lfoot -16.6068 21.0206
ltoes -6.04003
351
root 8.69227 17.8448 1.06487 -1.17092 12.6934 -4.42701
lowerback 11.1664 -1.46098 2.07226
upperback 2.52199 -1.84514 -3.76008
thorax -3.8131 -0.941246 -4.84604
lowerneck -10.7062 -6.94332 -6.74205
upperneck -6.9606 -8.40224 4.10084
head 0.0780952 -4.01663 2.13354
rclavicle 2.78299e-015 -1.27222e-014
rhumerus 46.3455 -4.99775 -30.8193
rradius 73.9156
rwrist -12.8633
rhand -36.7768 31.3032
rfingers 7.12502
rthumb -9.8593 1.55409
lclavicle 2.78299e-015 -1.27222e-014
lhumerus -38.8399 4.51296 81.7999
lradius 52.4114
lwrist 33.1663
lhand -30.2005 18.0219
lfingers 7.12502
lthumb -3.51112 47.9727
rfemur -8.8675 -1.53817 24.7565
rtibia 19.4335
rfoot -8.06604 -12.6813
rtoes -0.102087
lfemur 2.22938 0.447273 -14.7369
ltibia 19.2165
lfoot -16.7957 20.8625
ltoes -5.83532
352
root 8.70727 17.8435 1.02087 -1.00436 12.8251 -3.93084
lowerback 11.3095 -1.45021 1.73832
upperback 2.59574 -1.86951 -3.8366
thorax -3.80967 -0.948531 -4.7311
lowerneck -10.4759 -6.83846 -6.65115
upperneck -6.75268 -8.2932 4.14765
head 0.100146 -3.96955 2.14186
rclavicle 2.74323e-014 1.74931e-014
rhumerus 46.2436 -3.77719 -30.8949
rradius 73.6867
rwrist -12.9343
rhand -36.6822 31.8125
rfingers 7.12502
rthumb -9.76807 2.05902
lclavicle 2.74323e-014 1.74931e-014
lhumerus -38.8772 4.42787 81.9577
lradius 52.7705
lwrist 33.0632
lhand -30.34 14.3636
lfingers 7.12502
lthumb -3.64577 44.3121
rfemur -9.2025 -1.48744 24.1185
rtibia 19.6707
rfoot -8.06399 -12.8178
rtoes 0.961796
lfemur 1.79552 0.6577 -15.2954
ltibia 19.5318
lfoot -16.9479 20.5447
ltoes -5.17251
353
root 8.71662 17.8435 0.969227 -0.681003 13.063 -3.42042
lowerback 11.4182 -1.46577 1.28917
upperback 2.59755 -1.94158 -3.83108
thorax -3.86022 -0.980041 -4.4563
lowerneck -10.4439 -6.76048 -6.47804
upperneck -6.19604 -8.22302 3.86474
head 0.247911 -3.94671 2.01419
rclavicle 2.06736e-014 1.27222e-014
rhumerus 45.9253 -2.50645 -31.1921
rradius 74.0471
rwrist -12.6972
rhand -36.5787 31.9213
rfingers 7.12502
rthumb -9.66816 2.16321
lclavicle 2.06736e-014 1.27222e-014
lhumerus -39.0164 4.55079 82.1372
lradius 53.2856
lwrist 32.7896
lhand -14.2187 10.7038
lfingers 7.12502
lthumb 11.9182 40.3445
rfemur -9.85904 -1.42474 23.4827
rtibia 20.1068
rfoot -8.18381 -12.9827
rtoes 1.62404
lfemur 1.26318 1.00052 -15.8286
ltibia 19.6241
lfoot -16.7222 20.0814
ltoes -4.66286
354
root 8.73073 17.8407 0.91937 -0.460646 13.2264 -3.15406
lowerback 11.4883 -1.47826 1.19412
upperback 2.65926 -1.9659 -3.79968
thorax -3.83218 -0.989464 -4.36449
lowerneck -10.5484 -6.61155 -6.24205
upperneck -5.5451 -8.05562 3.47589
head 0.435815 -3.87706 1.84172
rclavicle 5.12864e-014 3.18055e-014
rhumerus 45.4551 -1.19893 -31.3691
rradius 74.8038
rwrist -12.5384
rhand -36.7832 31.8248
rfingers 7.12502
rthumb -9.8655 2.07589
lclavicle 5.12864e-014 3.18055e-014
lhumerus -38.7893 4.36766 82.3535
lradius 53.274
lwrist 32.8049
lhand -26.3573 14.2224
lfingers 7.12502
lthumb 0.200627 44.2021
rfemur -10.4289 -1.48546 23.1225
rtibia 20.5853
rfoot -8.14986 -13.0834
rtoes 0.592001
lfemur 0.853173 1.0876 -16.1708
ltibia 19.697
lfoot -16.5308 19.7894
ltoes -5.03479
355
root 8.74608 17.8399 0.872825 -0.291873 13.2945 -2.81393
lowerback 11.5753 -1.46135 1.07297
upperback 2.78924 -1.95441 -3.82008
thorax -3.73981 -0.979299 -4.31823
lowerneck -10.4269 -6.50606 -6.40417
upperneck -5.19776 -7.91109 3.61527
head 0.535711 -3.80642 1.92006
rclavicle 2.0276e-014 2.06736e-014
rhumerus 45.2639 0.00744038 -31.4218
rradius 75.0766
rwrist -12.4726
rhand -37.1724 31.9258
rfingers 7.12502
rthumb -10.241 2.19514
lclavicle 2.0276e-014 2.06736e-014
lhumerus -38.2493 3.89403 82.592
lradius 52.8136
lwrist 33.0334
lhand -30.6547 15.0313
lfingers 7.12502
lthumb -3.94968 44.9744
rfemur -10.8427 -1.46938 22.6765
rtibia 20.9473
rfoot -7.97975 -13.2237
rtoes 0.12461
lfemur 0.509962 1.14239 -16.6297
ltibia 19.8999
lfoot -16.5649 19.6278
ltoes -5.66188
356
root 8.75707 17.8407 0.825193 -0.112782 13.3346 -2.70505
lowerback 11.6832 -1.43097 1.12432
upperback 2.86706 -1.90279 -3.74267
thorax -3.71229 -0.952196 -4.27241
lowerneck -9.74922 -6.38512 -7.01782
upperneck -5.25464 -7.7337 4.28972
head 0.457179 -3.70902 2.27697
rclavicle 1.15295e-014 -2.38542e-014
rhumerus 45.1281 1.22397 -31.4875
rradius 74.9499
rwrist -12.1877
rhand -37.6698 32.0561
rfingers 7.12502
rthumb -10.7208 2.34963
lclavicle 1.15295e-014 -2.38542e-014
lhumerus -37.9051 3.45716 82.8445
lradius 52.6634
lwrist 33.2719
lhand -30.8172 14.7735
lfingers 7.12502
lthumb -4.10661 44.7136
rfemur -11.3917 -1.01039 22.4596
rtibia 21.3487
rfoot -8.16026 -13.6464
rtoes 0.677232
lfemur 0.048327 1.31955 -16.7931
ltibia 20.0947
lfoot -16.6198 19.5049
ltoes -5.51979
357
root 8.76982 17.8393 0.783568 -0.00568676 13.4293 -2.94288
lowerback 11.7522 -1.4294 1.53639
upperback 2.89653 -1.8444 -3.57888
thorax -3.72141 -0.92585 -4.34238
lowerneck -9.01465 -6.20674 -7.5188
upperneck -5.22076 -7.50361 4.85316
head 0.381103 -3.5915 2.5847
rclavicle 1.31198e-014 -3.18055e-014
rhumerus 44.9126 2.5799 -31.5748
rradius 74.7484
rwrist -11.9032
rhand -37.7256 32.1624
rfingers 7.12502
rthumb -10.7746 2.45876
lclavicle 1.31198e-014 -3.18055e-014
lhumerus -37.8717 3.09423 83.0353
lradius 52.8899
lwrist 33.4261
lhand -30.8889 14.9072
lfingers 7.12502
lthumb -4.17584 44.8461
rfemur -11.9242 -0.627314 22.6245
rtibia 21.8368
rfoot -8.45522 -14.0334
rtoes 0.157536
lfemur -0.425823 1.49129 -16.548
ltibia 20.2872
lfoot -16.6434 19.281
ltoes -5.15492
358
root 8.78218 17.8332 0.738087 -0.0181785 13.5991 -2.83224
lowerback 12.1714 -1.40995 1.62077
upperback 2.95027 -1.80314 -3.50601
thorax -3.89185 -0.906806 -4.31496
lowerneck -9.84018 -6.23406 -7.3689
upperneck -3.79895 -7.51528 4.41373
head 0.955488 -3.60942 2.36921
rclavicle -1.03368e-014 1.11319e-014
rhumerus 44.693 3.81009 -31.6432
rradius 74.4942
rwrist -11.7334
rhand -37.3811 32.0131
rfingers 7.12502
rthumb -10.4422 2.29245
lclavicle -1.03368e-014 1.11319e-014
lhumerus -37.796 2.7689 83.2466
lradius 52.9995
lwrist 33.3718
lhand -30.8541 14.7033
lfingers 7.12502
lthumb -4.14228 44.6427
rfemur -12.2037 -0.717621 22.4363
rtibia 22.2735
rfoot -8.47405 -14.1477
rtoes -0.895546
lfemur -0.710811 1.61508 -16.6951
ltibia 20.6174
lfoot -16.9489 18.826
ltoes -4.15769
359
root 8.79133 17.8274 0.680659 0.0214309 13.7691 -2.50134
lowerback 12.8323 -1.40246 1.45678
upperback 2.94903 -1.81187 -3.47617
thorax -4.25074 -0.913368 -4.18071
lowerneck -10.6423 -6.22397 -6.96661
upperneck -2.57639 -7.49497 3.71554
head 1.43928 -3.61889 2.03393
rclavicle -3.45885e-014 -2.8625e-014
rhumerus 44.5217 5.10468 -31.7109
rradius 74.2805
rwrist -11.5715
rhand -37.2108 31.4587
rfingers 7.12502
rthumb -10.278 1.72985
lclavicle -3.45885e-014 -2.8625e-014
lhumerus -37.7056 2.54161 83.4801
lradius 53.0467
lwrist 33.271
lhand -30.9502 14.6867
lfingers 7.12502
lthumb -4.23503 44.6244
rfemur -12.5405 -0.85895 22.0079
rtibia 22.6711
rfoot -8.41724 -14.27
rtoes -1.36541
lfemur -1.09527 1.86945 -17.0729
ltibia 21.0456
lfoot -17.0395 18.3122
ltoes -3.61765
